<svg width="116" height="116" viewBox="0 0 116 116" fill="none" xmlns="http://www.w3.org/2000/svg">
<path d="M46.4705 103.69C47.1037 105.379 49.3283 105.75 50.4748 104.356L58.3249 94.8178L81.9845 66.0688L91.7485 54.2044C92.895 52.8113 92.1035 50.6995 90.3238 50.4032L81.9845 49.0146L63.6909 45.9686L26.254 39.7351C24.4742 39.4388 23.0411 41.1802 23.6744 42.8696L31.7482 64.4107L38.9532 83.6335L46.4705 103.69Z" fill="#D20000"/>
<path d="M81.9845 104.418C81.9845 106.222 80.0313 107.35 78.4688 106.448L58.3249 94.8178L81.9845 66.0688L81.9845 104.418Z" fill="#D20000"/>
<path d="M61.229 11.5365C62.3755 10.1433 64.6001 10.5136 65.2335 12.203L75.2083 38.8112C75.8417 40.5006 74.4086 42.2421 72.6289 41.9458L44.5981 37.2802C42.8184 36.984 42.0267 34.8722 43.1731 33.4791L61.229 11.5365Z" fill="#D20000"/>
<path d="M44.2317 23.8211C43.0853 25.2142 40.8606 24.844 40.2273 23.1546L36.1219 12.2035C35.4886 10.5141 36.9216 8.77261 38.7014 9.06884L50.2379 10.989C52.0177 11.2853 52.8093 13.397 51.6629 14.7902L44.2317 23.8211Z" fill="#D20000"/>
<path d="M30.4499 23.5114C31.5964 22.1182 33.821 22.4885 34.4543 24.1779L36.699 30.1656C37.3323 31.855 35.8993 33.5965 34.1196 33.3003L27.8118 32.2504C26.0321 31.9541 25.2404 29.8424 26.3868 28.4492L30.4499 23.5114Z" fill="#D20000"/>
</svg>
